name rise30.3154peak39.0474fall46.5389.mot
datacolumns 19
datarows 36
range 2.73333100000000 2.79165600000000
endheader
time	ground_force1_vx	ground_force1_vy	ground_force1_vz	ground_force1_px	ground_force1_py	ground_force1_pz	ground_force2_vx	ground_force2_vy	ground_force2_vz	ground_force2_px	ground_force2_py	ground_force2_pz	ground_torque1_x	ground_torque1_y	ground_torque1_z	ground_torque2_x	ground_torque2_y	ground_torque2_z	
2.73333100000000	55.05380800000000	705.10371699999996	51.81917000000000	0.30733500000000	0.00000000000000	0.09030000000000	0.00000000000000	0.00000000000000	0.00000000000000	0.00000000000000	0.00000000000000	0.00000000000000	0.00000000000000	20.71628600000000	0.00000000000000	0.00000000000000	0.00000000000000	0.00000000000000	
2.73499100000000	54.26796400000000	707.27522799999997	51.86604800000000	0.30594900000000	0.00000000000000	0.09032100000000	0.00000000000000	0.00000000000000	0.00000000000000	0.00000000000000	0.00000000000000	0.00000000000000	0.00000000000000	20.70604400000000	0.00000000000000	0.00000000000000	0.00000000000000	0.00000000000000	
2.73666300000000	53.49994700000000	709.43846799999994	51.92054200000000	0.30463000000000	0.00000000000000	0.09033900000000	0.00000000000000	0.00000000000000	0.00000000000000	0.00000000000000	0.00000000000000	0.00000000000000	0.00000000000000	20.70270700000000	0.00000000000000	0.00000000000000	0.00000000000000	0.00000000000000	
2.73833100000000	52.75054700000000	711.59135300000003	51.98259000000000	0.30337600000000	0.00000000000000	0.09035600000000	0.00000000000000	0.00000000000000	0.00000000000000	0.00000000000000	0.00000000000000	0.00000000000000	0.00000000000000	20.70619100000000	0.00000000000000	0.00000000000000	0.00000000000000	0.00000000000000	
2.73999700000000	52.02042000000000	713.73160600000006	52.05203000000000	0.30218900000000	0.00000000000000	0.09037000000000	0.00000000000000	0.00000000000000	0.00000000000000	0.00000000000000	0.00000000000000	0.00000000000000	0.00000000000000	20.71634800000000	0.00000000000000	0.00000000000000	0.00000000000000	0.00000000000000	
2.74165500000000	51.31008400000000	715.85677399999997	52.12859700000000	0.30106600000000	0.00000000000000	0.09038300000000	0.00000000000000	0.00000000000000	0.00000000000000	0.00000000000000	0.00000000000000	0.00000000000000	0.00000000000000	20.73296600000000	0.00000000000000	0.00000000000000	0.00000000000000	0.00000000000000	
2.74332300000000	50.61992600000000	717.96424999999999	52.21193100000000	0.30000800000000	0.00000000000000	0.09039400000000	0.00000000000000	0.00000000000000	0.00000000000000	0.00000000000000	0.00000000000000	0.00000000000000	0.00000000000000	20.75577700000000	0.00000000000000	0.00000000000000	0.00000000000000	0.00000000000000	
2.74499700000000	49.95020200000000	720.05129199999999	52.30158300000000	0.29901300000000	0.00000000000000	0.09040300000000	0.00000000000000	0.00000000000000	0.00000000000000	0.00000000000000	0.00000000000000	0.00000000000000	0.00000000000000	20.78445300000000	0.00000000000000	0.00000000000000	0.00000000000000	0.00000000000000	
2.74665700000000	49.30104400000000	722.11504500000001	52.39701800000000	0.29807900000000	0.00000000000000	0.09041000000000	0.00000000000000	0.00000000000000	0.00000000000000	0.00000000000000	0.00000000000000	0.00000000000000	0.00000000000000	20.81861700000000	0.00000000000000	0.00000000000000	0.00000000000000	0.00000000000000	
2.74832600000000	48.67246300000000	724.15256099999999	52.49762500000000	0.29720500000000	0.00000000000000	0.09041500000000	0.00000000000000	0.00000000000000	0.00000000000000	0.00000000000000	0.00000000000000	0.00000000000000	0.00000000000000	20.85784300000000	0.00000000000000	0.00000000000000	0.00000000000000	0.00000000000000	
2.74999700000000	48.06435300000000	726.16081499999996	52.60272000000000	0.29638900000000	0.00000000000000	0.09041800000000	0.00000000000000	0.00000000000000	0.00000000000000	0.00000000000000	0.00000000000000	0.00000000000000	0.00000000000000	20.90166000000000	0.00000000000000	0.00000000000000	0.00000000000000	0.00000000000000	
2.75166000000000	47.47649700000000	728.13673200000005	52.71155500000000	0.29562700000000	0.00000000000000	0.09042000000000	0.00000000000000	0.00000000000000	0.00000000000000	0.00000000000000	0.00000000000000	0.00000000000000	0.00000000000000	20.94955800000000	0.00000000000000	0.00000000000000	0.00000000000000	0.00000000000000	
2.75332200000000	46.90857600000000	730.07719999999995	52.82332400000000	0.29491800000000	0.00000000000000	0.09041900000000	0.00000000000000	0.00000000000000	0.00000000000000	0.00000000000000	0.00000000000000	0.00000000000000	0.00000000000000	21.00098900000000	0.00000000000000	0.00000000000000	0.00000000000000	0.00000000000000	
2.75499300000000	46.36016800000000	731.97909200000004	52.93717300000000	0.29425800000000	0.00000000000000	0.09041800000000	0.00000000000000	0.00000000000000	0.00000000000000	0.00000000000000	0.00000000000000	0.00000000000000	0.00000000000000	21.05537500000000	0.00000000000000	0.00000000000000	0.00000000000000	0.00000000000000	
2.75665500000000	45.83076300000000	733.83928500000002	53.05220200000000	0.29364400000000	0.00000000000000	0.09041400000000	0.00000000000000	0.00000000000000	0.00000000000000	0.00000000000000	0.00000000000000	0.00000000000000	0.00000000000000	21.11210800000000	0.00000000000000	0.00000000000000	0.00000000000000	0.00000000000000	
2.75832300000000	45.31976100000000	735.65467500000000	53.16748000000000	0.29307300000000	0.00000000000000	0.09040900000000	0.00000000000000	0.00000000000000	0.00000000000000	0.00000000000000	0.00000000000000	0.00000000000000	0.00000000000000	21.17055700000000	0.00000000000000	0.00000000000000	0.00000000000000	0.00000000000000	
2.75999100000000	44.82648900000000	737.42219299999999	53.28204700000000	0.29254100000000	0.00000000000000	0.09040300000000	0.00000000000000	0.00000000000000	0.00000000000000	0.00000000000000	0.00000000000000	0.00000000000000	0.00000000000000	21.23007500000000	0.00000000000000	0.00000000000000	0.00000000000000	0.00000000000000	
2.76165700000000	44.35019800000000	739.13882799999999	53.39492400000000	0.29204500000000	0.00000000000000	0.09039600000000	0.00000000000000	0.00000000000000	0.00000000000000	0.00000000000000	0.00000000000000	0.00000000000000	0.00000000000000	21.28999700000000	0.00000000000000	0.00000000000000	0.00000000000000	0.00000000000000	
2.76333000000000	43.89007800000000	740.80163300000004	53.50512000000000	0.29158000000000	0.00000000000000	0.09038700000000	0.00000000000000	0.00000000000000	0.00000000000000	0.00000000000000	0.00000000000000	0.00000000000000	0.00000000000000	21.34965000000000	0.00000000000000	0.00000000000000	0.00000000000000	0.00000000000000	
2.76499500000000	43.44526200000000	742.40774499999998	53.61164000000000	0.29114300000000	0.00000000000000	0.09037700000000	0.00000000000000	0.00000000000000	0.00000000000000	0.00000000000000	0.00000000000000	0.00000000000000	0.00000000000000	21.40835500000000	0.00000000000000	0.00000000000000	0.00000000000000	0.00000000000000	
2.76666300000000	43.01483500000000	743.95439699999997	53.71349300000000	0.29073100000000	0.00000000000000	0.09036600000000	0.00000000000000	0.00000000000000	0.00000000000000	0.00000000000000	0.00000000000000	0.00000000000000	0.00000000000000	21.46543100000000	0.00000000000000	0.00000000000000	0.00000000000000	0.00000000000000	
2.76832900000000	42.59784100000000	745.43893200000002	53.80969800000000	0.29033800000000	0.00000000000000	0.09035400000000	0.00000000000000	0.00000000000000	0.00000000000000	0.00000000000000	0.00000000000000	0.00000000000000	0.00000000000000	21.52020100000000	0.00000000000000	0.00000000000000	0.00000000000000	0.00000000000000	
2.76999500000000	42.19329100000000	746.85881099999995	53.89929300000000	0.28996000000000	0.00000000000000	0.09034200000000	0.00000000000000	0.00000000000000	0.00000000000000	0.00000000000000	0.00000000000000	0.00000000000000	0.00000000000000	21.57199600000000	0.00000000000000	0.00000000000000	0.00000000000000	0.00000000000000	
2.77165700000000	41.80016700000000	748.21162600000002	53.98133900000000	0.28959500000000	0.00000000000000	0.09032900000000	0.00000000000000	0.00000000000000	0.00000000000000	0.00000000000000	0.00000000000000	0.00000000000000	0.00000000000000	21.62015900000000	0.00000000000000	0.00000000000000	0.00000000000000	0.00000000000000	
2.77332700000000	41.41743700000000	749.49510799999996	54.05492900000000	0.28923700000000	0.00000000000000	0.09031500000000	0.00000000000000	0.00000000000000	0.00000000000000	0.00000000000000	0.00000000000000	0.00000000000000	0.00000000000000	21.66405000000000	0.00000000000000	0.00000000000000	0.00000000000000	0.00000000000000	
2.77499500000000	41.04405500000000	750.70713899999998	54.11919300000000	0.28888200000000	0.00000000000000	0.09030100000000	0.00000000000000	0.00000000000000	0.00000000000000	0.00000000000000	0.00000000000000	0.00000000000000	0.00000000000000	21.70304600000000	0.00000000000000	0.00000000000000	0.00000000000000	0.00000000000000	
2.77665900000000	40.67897100000000	751.84575299999995	54.17330300000000	0.28852700000000	0.00000000000000	0.09028600000000	0.00000000000000	0.00000000000000	0.00000000000000	0.00000000000000	0.00000000000000	0.00000000000000	0.00000000000000	21.73655300000000	0.00000000000000	0.00000000000000	0.00000000000000	0.00000000000000	
2.77832800000000	40.32113800000000	752.90914899999996	54.21648000000000	0.28816700000000	0.00000000000000	0.09027200000000	0.00000000000000	0.00000000000000	0.00000000000000	0.00000000000000	0.00000000000000	0.00000000000000	0.00000000000000	21.76400200000000	0.00000000000000	0.00000000000000	0.00000000000000	0.00000000000000	
2.77999400000000	39.96951800000000	753.89569400000005	54.24799800000000	0.28779900000000	0.00000000000000	0.09025700000000	0.00000000000000	0.00000000000000	0.00000000000000	0.00000000000000	0.00000000000000	0.00000000000000	0.00000000000000	21.78485500000000	0.00000000000000	0.00000000000000	0.00000000000000	0.00000000000000	
2.78165600000000	39.62308800000000	754.80392500000005	54.26718900000000	0.28741900000000	0.00000000000000	0.09024300000000	0.00000000000000	0.00000000000000	0.00000000000000	0.00000000000000	0.00000000000000	0.00000000000000	0.00000000000000	21.79861200000000	0.00000000000000	0.00000000000000	0.00000000000000	0.00000000000000	
2.78332200000000	39.28084500000000	755.63255800000002	54.27344400000000	0.28702300000000	0.00000000000000	0.09022900000000	0.00000000000000	0.00000000000000	0.00000000000000	0.00000000000000	0.00000000000000	0.00000000000000	0.00000000000000	21.80480900000000	0.00000000000000	0.00000000000000	0.00000000000000	0.00000000000000	
2.78499800000000	38.94181400000000	756.38048600000002	54.26622200000000	0.28660800000000	0.00000000000000	0.09021500000000	0.00000000000000	0.00000000000000	0.00000000000000	0.00000000000000	0.00000000000000	0.00000000000000	0.00000000000000	21.80302300000000	0.00000000000000	0.00000000000000	0.00000000000000	0.00000000000000	
2.78666100000000	38.60505200000000	757.04678400000000	54.24504700000000	0.28617000000000	0.00000000000000	0.09020100000000	0.00000000000000	0.00000000000000	0.00000000000000	0.00000000000000	0.00000000000000	0.00000000000000	0.00000000000000	21.79287500000000	0.00000000000000	0.00000000000000	0.00000000000000	0.00000000000000	
2.78832800000000	38.26965100000000	757.63070800000003	54.20951600000000	0.28570700000000	0.00000000000000	0.09018800000000	0.00000000000000	0.00000000000000	0.00000000000000	0.00000000000000	0.00000000000000	0.00000000000000	0.00000000000000	21.77403200000000	0.00000000000000	0.00000000000000	0.00000000000000	0.00000000000000	
2.78999300000000	37.93474600000000	758.13169900000003	54.15929600000000	0.28521600000000	0.00000000000000	0.09017600000000	0.00000000000000	0.00000000000000	0.00000000000000	0.00000000000000	0.00000000000000	0.00000000000000	0.00000000000000	21.74620900000000	0.00000000000000	0.00000000000000	0.00000000000000	0.00000000000000	
2.79165600000000	37.59951600000000	758.54937800000005	54.09412700000000	0.28469300000000	0.00000000000000	0.09016500000000	0.00000000000000	0.00000000000000	0.00000000000000	0.00000000000000	0.00000000000000	0.00000000000000	0.00000000000000	21.70916900000000	0.00000000000000	0.00000000000000	0.00000000000000	0.00000000000000	
